<svg width="165" height="154" viewBox="0 0 165 154" fill="none" xmlns="http://www.w3.org/2000/svg">
    <path d="M30.6837 59.1173L76.3295 85.4709L30.6837 111.825L30.6837 59.1173Z" fill="#00BCD4" />
    <path d="M30.6837 59.1172L76.3296 32.7636L76.3295 85.4709L30.6837 59.1172Z" fill="#00DAF6" />
    <path d="M76.2097 85.4708L76.2097 32.7636L121.856 59.1172L76.2097 85.4708Z" fill="#009EB2" />
    <path d="M121.736 111.825L76.0897 85.4709L121.736 59.1173L121.736 111.825Z" fill="#5DEDFF" />
    <path d="M38.6747 63.7772L76.2166 85.452L38.6747 107.127L38.6747 63.7772Z" fill="#009EB2" />
    <path d="M38.744 107.087L76.2859 85.412L76.286 128.762L38.744 107.087Z" fill="#009EB2" />
    <path d="M76.2096 128.858L76.2096 85.5088L113.751 107.184L76.2096 128.858Z" fill="#00DAF6" />
    <path d="M113.682 107.144L76.1403 85.4688L113.682 63.7939L113.682 107.144Z" fill="#00DAF6" />
    <path d="M113.853 63.7771L76.311 85.4519L76.311 42.1023L113.853 63.7771Z" fill="#00BCD4" />
    <path d="M76.3111 42.1824L76.3111 85.532L38.7692 63.8572L76.3111 42.1824Z" fill="#00BCD4" />
    <path d="M48.7732 85.662L52.2513 87.4928L48.7732 89.3237L48.7732 85.662Z" fill="#FCFCFC" />
    <path d="M48.7796 89.3203L52.2577 87.4894L52.2577 91.1511L48.7796 89.3203Z" fill="#FCFCFC" />
    <path d="M58.2993 90.8581L61.7775 92.6889L58.2993 94.5198L58.2993 90.8581Z" fill="#FCFCFC" />
    <path d="M58.3058 94.5164L61.7839 92.6855L61.7839 96.3472L58.3058 94.5164Z" fill="#FCFCFC" />
    <path d="M58.2993 101.25L61.7775 103.081L58.2993 104.912L58.2993 101.25Z" fill="#FCFCFC" />
    <path d="M58.3058 104.909L61.7839 103.078L61.7839 106.739L58.3058 104.909Z" fill="#FCFCFC" />
    <path d="M48.7732 96.0542L52.2513 97.885L48.7732 99.7158L48.7732 96.0542Z" fill="#FCFCFC" />
    <path d="M48.7795 99.7124L52.2577 97.8816L52.2577 101.543L48.7795 99.7124Z" fill="#FCFCFC" />
</svg>
